<?xml version="1.0" standalone="no"?>
<!DOCTYPE svg PUBLIC "-//W3C//DTD SVG 20010904//EN"
 "http://www.w3.org/TR/2001/REC-SVG-20010904/DTD/svg10.dtd">
<svg version="1.0" xmlns="http://www.w3.org/2000/svg"
 width="96.000000pt" height="96.000000pt" viewBox="0 0 96.000000 96.000000"
 preserveAspectRatio="xMidYMid meet">
<metadata>
Created by potrace 1.10, written by Peter Selinger 2001-2011
</metadata>
<g transform="translate(0.000000,96.000000) scale(0.100000,-0.100000)"
fill="#000000" stroke="none">
<path d="M662 937 c-44 -14 -85 -53 -78 -75 4 -13 -9 -27 -55 -55 -34 -21 -59
-41 -56 -44 3 -3 28 2 56 12 38 12 55 14 70 5 21 -11 31 3 11 15 -18 11 2 27
27 21 15 -4 29 -1 39 9 14 13 14 15 -2 15 -10 0 -1 9 21 20 63 32 95 22 95
-31 0 -43 -32 -74 -76 -74 -21 0 -39 -5 -41 -12 -3 -7 3 -13 12 -13 9 0 27
-12 40 -26 31 -34 32 -78 5 -192 -28 -119 -119 -306 -138 -287 -4 3 -12 43
-18 88 l-12 82 0 -81 c0 -79 -8 -121 -39 -217 -10 -34 -19 -47 -29 -43 -12 4
-11 0 2 -25 9 -17 19 -27 23 -23 12 14 61 134 62 152 1 10 4 7 9 -8 6 -22 14
-12 63 90 72 150 144 334 153 388 5 31 2 53 -11 82 l-18 40 28 40 c29 42 29
78 -1 111 -13 15 -12 17 8 24 22 7 22 7 -7 15 -42 11 -104 10 -143 -3z m74
-27 c-16 -5 -45 -22 -65 -38 -36 -29 -61 -32 -61 -7 0 24 69 53 125 53 l30 0
-29 -8z"/>
<path d="M630 756 c0 -9 -6 -16 -13 -16 -7 0 -26 -15 -43 -32 -16 -18 -20 -25
-8 -15 11 9 35 22 52 28 31 11 42 32 22 44 -5 3 -10 -1 -10 -9z"/>
<path d="M412 739 c10 -5 24 -19 33 -32 8 -12 15 -16 15 -9 0 16 -37 52 -52
52 -8 0 -6 -5 4 -11z"/>
<path d="M427 661 c61 -44 78 -99 77 -236 -1 -107 -1 -109 11 -59 7 28 16 57
20 64 5 9 4 11 -3 6 -14 -8 -14 13 -4 121 5 46 4 69 -2 63 -5 -5 -9 -31 -9
-57 0 -43 0 -45 -8 -18 -5 17 -7 36 -4 43 3 7 1 11 -4 8 -5 -3 -14 8 -21 24
-14 34 -54 70 -78 70 -8 0 3 -13 25 -29z"/>
<path d="M620 657 c-35 -17 -61 -77 -65 -150 -2 -34 -2 -48 1 -32 14 91 25
121 62 152 40 35 41 49 2 30z"/>
<path d="M281 612 c-37 -20 -71 -73 -71 -110 0 -97 105 -161 191 -117 92 48
88 191 -6 231 -46 19 -73 18 -114 -4z m41 -41 c-3 -23 -8 -29 -24 -26 -11 3
-27 -3 -36 -12 -13 -12 -17 -13 -20 -3 -5 15 51 70 71 70 9 0 12 -10 9 -29z
m66 -14 c3 -38 22 -53 22 -17 0 11 5 20 11 20 21 0 4 -45 -18 -48 -19 -3 -22
2 -25 35 -5 64 -23 42 -26 -32 -2 -38 -7 -74 -12 -79 -15 -15 -40 14 -40 45 0
48 -19 33 -23 -18 l-3 -48 -2 52 c-1 28 3 55 8 58 18 11 40 -15 40 -46 0 -16
5 -29 10 -29 6 0 10 29 10 68 0 72 4 84 30 80 9 -2 16 -16 18 -41z m52 -81 c0
-13 -12 -35 -26 -50 -22 -21 -36 -26 -75 -26 -27 0 -49 5 -49 10 0 6 10 8 23
5 25 -7 50 15 62 53 4 14 12 21 21 18 7 -3 16 -1 19 4 11 18 25 10 25 -14z"/>
</g>
</svg>
