<?xml version="1.0" standalone="no"?>
<!DOCTYPE svg PUBLIC "-//W3C//DTD SVG 20010904//EN"
 "http://www.w3.org/TR/2001/REC-SVG-20010904/DTD/svg10.dtd">
<svg version="1.0" xmlns="http://www.w3.org/2000/svg"
 width="96.000000pt" height="96.000000pt" viewBox="0 0 96.000000 96.000000"
 preserveAspectRatio="xMidYMid meet">
<metadata>
Created by potrace 1.10, written by Peter Selinger 2001-2011
</metadata>
<g transform="translate(0.000000,96.000000) scale(0.100000,-0.100000)"
fill="#000000" stroke="none">
<path d="M623 853 c-29 -6 -74 -49 -68 -65 3 -8 -17 -27 -48 -47 -32 -20 -42
-31 -27 -27 62 16 86 17 105 2 20 -14 19 -15 -7 -25 -15 -5 -32 -20 -39 -33
l-12 -23 25 23 c13 12 29 22 36 22 23 0 23 22 1 46 -23 25 -22 26 21 28 14 1
25 7 25 14 0 19 49 46 69 39 23 -9 21 -69 -3 -91 -10 -9 -25 -14 -34 -10 -33
12 -36 -8 -5 -35 36 -32 39 -64 14 -161 -24 -93 -87 -230 -105 -230 -5 0 -13
30 -17 68 l-8 67 -7 -85 c-9 -107 -34 -194 -55 -186 -12 4 -12 2 -4 -14 5 -10
14 -21 19 -24 9 -6 51 86 51 110 0 8 4 14 10 14 5 0 7 -8 4 -17 -5 -17 -5 -17
9 -1 12 16 40 75 127 273 9 22 23 64 30 92 12 47 12 57 -3 89 -17 35 -17 36 8
66 30 36 31 48 4 82 -17 21 -18 26 -5 26 9 0 16 4 16 8 0 9 -90 13 -127 5z
m12 -43 c-21 -23 -47 -27 -39 -6 3 8 15 17 27 19 12 2 24 5 26 6 2 0 -4 -8
-14 -19z"/>
<path d="M423 688 c9 -7 24 -22 32 -33 14 -18 14 -17 0 13 -8 17 -23 32 -32
32 -16 0 -16 -1 0 -12z"/>
<path d="M410 652 c0 -4 12 -17 28 -29 42 -31 65 -108 58 -196 -4 -55 -3 -65
4 -42 13 38 23 228 11 200 -5 -11 -7 -31 -4 -45 3 -14 3 -22 -1 -19 -4 4 -8
18 -10 31 -1 14 -12 39 -25 56 -23 32 -61 60 -61 44z"/>
<path d="M566 611 c-20 -22 -36 -80 -35 -126 0 -18 6 -5 15 35 10 49 20 70 41
87 20 16 23 23 12 23 -9 0 -24 -9 -33 -19z"/>
<path d="M320 592 c-44 -22 -62 -56 -56 -106 6 -53 34 -78 93 -83 46 -5 51 -3
81 31 36 41 40 74 15 117 -15 25 -66 59 -90 59 -4 0 -24 -8 -43 -18z m81 -29
c1 -10 1 -24 0 -30 -1 -7 3 -13 9 -13 5 0 10 7 10 15 0 8 4 15 9 15 5 0 7 -9
4 -20 -3 -11 -14 -20 -24 -20 -15 0 -19 7 -19 31 0 17 -4 28 -10 24 -5 -3 -10
-30 -10 -60 0 -30 -4 -56 -9 -59 -12 -8 -28 14 -34 44 -3 16 -5 10 -6 -18 -1
-54 -21 -47 -21 8 0 61 41 61 53 0 2 -14 5 0 6 31 0 31 4 59 8 62 13 13 33 7
34 -10z m-51 -10 c0 -13 -9 -18 -30 -19 -25 -1 -28 1 -19 17 13 24 49 25 49 2z
m88 -71 c5 -15 -43 -62 -64 -62 -16 0 -16 1 -1 18 10 10 17 22 17 26 0 12 25
35 34 32 6 -1 11 -7 14 -14z"/>
</g>
</svg>
